<svg xmlns="http://www.w3.org/2000/svg" viewBox="0 0 1600 900" preserveAspectRatio="xMidYMid slice">
<defs>
  <radialGradient id="space" cx="50%" cy="45%" r="75%"><stop offset="0" stop-color="#09202b"/><stop offset=".48" stop-color="#031018"/><stop offset="1" stop-color="#010407"/></radialGradient>
  <radialGradient id="earth" cx="42%" cy="38%" r="68%"><stop offset="0" stop-color="#174d58"/><stop offset=".35" stop-color="#0c303b"/><stop offset=".72" stop-color="#06161f"/><stop offset="1" stop-color="#02070b"/></radialGradient>
  <linearGradient id="rim" x1="0" y1="0" x2="1" y2="1"><stop stop-color="#d8ffff"/><stop offset=".18" stop-color="#55e8ff"/><stop offset=".55" stop-color="#167c9a"/><stop offset="1" stop-color="#071923"/></linearGradient>
  <linearGradient id="land" x1="0" y1="0" x2="1" y2="1"><stop stop-color="#e0bd55"/><stop offset=".35" stop-color="#4e9d77"/><stop offset=".72" stop-color="#12647a"/><stop offset="1" stop-color="#101b2c"/></linearGradient>
  <filter id="glow"><feGaussianBlur stdDeviation="10" result="b"/><feMerge><feMergeNode in="b"/><feMergeNode in="SourceGraphic"/></feMerge></filter>
  <filter id="soft"><feGaussianBlur stdDeviation="24"/></filter>
  <clipPath id="earthClip"><ellipse cx="800" cy="610" rx="790" ry="405"/></clipPath>
</defs>
<rect width="1600" height="900" fill="url(#space)"/>
<g opacity=".8" fill="#bafcff">
  <circle cx="92" cy="112" r="1.5"/><circle cx="174" cy="238" r="1"/><circle cx="308" cy="96" r="1.4"/><circle cx="461" cy="171" r="1"/><circle cx="588" cy="72" r="1.2"/><circle cx="716" cy="133" r="1"/><circle cx="911" cy="70" r="1.4"/><circle cx="1088" cy="151" r="1"/><circle cx="1260" cy="86" r="1.3"/><circle cx="1452" cy="182" r="1"/><circle cx="1541" cy="74" r="1.5"/>
  <circle cx="42" cy="405" r="1"/><circle cx="250" cy="342" r="1.3"/><circle cx="1344" cy="320" r="1.2"/><circle cx="1510" cy="420" r="1"/>
</g>
<ellipse cx="800" cy="630" rx="760" ry="405" fill="#02070b" stroke="#07323e" stroke-width="22" filter="url(#soft)" opacity=".8"/>
<ellipse cx="800" cy="610" rx="790" ry="405" fill="url(#earth)" stroke="url(#rim)" stroke-width="4"/>
<g clip-path="url(#earthClip)">
  <path d="M-80 470 C180 350 340 360 470 450 C570 520 625 580 710 605 C805 633 920 610 1000 530 C1110 420 1290 360 1690 430 L1690 940 L-80 940Z" fill="#02080e" opacity=".55"/>
  <path d="M110 455 C185 398 240 402 284 436 L319 475 286 514 230 506 195 548 130 520Z" fill="url(#land)" opacity=".92"/>
  <path d="M320 470 C385 420 455 402 514 425 L560 466 532 505 481 523 444 565 396 535 365 497Z" fill="url(#land)" opacity=".86"/>
  <path d="M535 420 C620 372 708 383 757 421 L739 468 687 494 648 541 591 514 570 470Z" fill="#2e806c" opacity=".85"/>
  <path d="M755 420 C840 378 931 392 982 437 L968 482 913 503 883 548 825 530 792 481Z" fill="url(#land)" opacity=".8"/>
  <path d="M980 430 C1080 370 1188 392 1262 438 L1245 485 1176 502 1140 546 1076 516 1038 477Z" fill="#4e986d" opacity=".82"/>
  <path d="M1260 452 C1360 407 1500 430 1650 505 L1650 650 C1500 620 1410 578 1318 548 L1268 512Z" fill="url(#land)" opacity=".82"/>
  <path d="M180 565 C290 530 405 556 470 620 L442 688 355 724 270 696 202 650Z" fill="#176277" opacity=".8"/>
  <path d="M470 610 C570 555 690 560 760 622 L730 692 654 731 560 704 505 664Z" fill="#9e7d3c" opacity=".55"/>
  <path d="M770 615 C880 556 1000 572 1068 632 L1038 704 950 735 850 704 802 663Z" fill="#166779" opacity=".76"/>
  <path d="M1070 620 C1190 570 1308 602 1392 666 L1360 735 1268 770 1160 728 1112 684Z" fill="#8b7840" opacity=".5"/>
  <g fill="none" stroke="#54dff0" stroke-width="1" opacity=".25">
    <ellipse cx="800" cy="610" rx="610" ry="315"/><ellipse cx="800" cy="610" rx="470" ry="315"/><ellipse cx="800" cy="610" rx="300" ry="315"/>
    <path d="M50 610 Q800 350 1550 610 Q800 870 50 610Z"/><path d="M180 420 Q800 610 1420 800"/><path d="M180 800 Q800 610 1420 420"/>
  </g>
  <g fill="#67efff" filter="url(#glow)">
    <circle cx="285" cy="474" r="4"/><circle cx="456" cy="492" r="3"/><circle cx="640" cy="466" r="4"/><circle cx="892" cy="502" r="4"/><circle cx="1135" cy="474" r="4"/><circle cx="1300" cy="548" r="3"/><circle cx="1002" cy="665" r="4"/><circle cx="560" cy="650" r="3"/>
  </g>
  <g stroke="#55e8ff" stroke-width="2" opacity=".48">
    <path d="M285 474 Q420 390 640 466 Q780 520 892 502"/><path d="M892 502 Q1010 410 1135 474 Q1210 510 1300 548"/><path d="M560 650 Q760 560 1002 665"/>
  </g>
</g>
<path d="M35 455 Q800 92 1565 455" fill="none" stroke="#8cf6ff" stroke-width="3" opacity=".72" filter="url(#glow)"/>
<g transform="translate(145 260) rotate(-8)">
  <rect x="-40" y="-13" width="80" height="26" rx="4" fill="#172b38" stroke="#68e8f4"/><rect x="-112" y="-28" width="62" height="56" fill="#0c3345" stroke="#68e8f4"/><rect x="50" y="-28" width="62" height="56" fill="#0c3345" stroke="#68e8f4"/><circle r="10" fill="#0b1720" stroke="#b9ffff"/><path d="M0 10v30" stroke="#68e8f4"/>
</g>
<g transform="translate(1420 250) rotate(9)">
  <rect x="-38" y="-12" width="76" height="24" rx="4" fill="#182c39" stroke="#68e8f4"/><rect x="-108" y="-26" width="58" height="52" fill="#0c3345" stroke="#68e8f4"/><rect x="50" y="-26" width="58" height="52" fill="#0c3345" stroke="#68e8f4"/><circle r="9" fill="#0b1720" stroke="#b9ffff"/><path d="M0 9v36" stroke="#68e8f4"/>
</g>
<g fill="none" stroke="#a58cff" opacity=".55">
  <path d="M120 300 Q400 150 690 230"/><path d="M1010 210 Q1240 120 1490 290"/>
</g>
<g fill="#68e8f4" font-family="Arial,sans-serif" letter-spacing="4" opacity=".65">
  <text x="72" y="840" font-size="10">GEM // PLANETARY INTELLIGENCE FABRIC</text>
  <text x="1250" y="840" font-size="10">GLOBAL // LIVE CONTEXT</text>
</g>
</svg>